<svg width="7" height="12" viewBox="0 0 7 12" fill="none" xmlns="http://www.w3.org/2000/svg">
<path fill-rule="evenodd" clip-rule="evenodd" d="M6.11566 12C6.2506 12 6.37349 11.9699 6.48434 11.9096C6.59518 11.8494 6.68313 11.7627 6.74819 11.6494C6.81325 11.5361 6.84578 11.4145 6.84578 11.2843C6.84578 11.0867 6.77108 10.9133 6.62169 10.7639L1.74217 6L6.62169 1.23614C6.77108 1.08675 6.84578 0.913253 6.84578 0.715663C6.84578 0.580723 6.81325 0.457831 6.74819 0.346988C6.68313 0.236145 6.59518 0.150602 6.48434 0.0903614C6.37349 0.0301205 6.2506 0 6.11566 0C5.91325 0 5.74217 0.0674699 5.60241 0.20241L0.238554 5.45783C0.151807 5.53494 0.0903614 5.61807 0.0542169 5.70723C0.0180723 5.79639 0 5.89398 0 6C0 6.10602 0.0180723 6.20361 0.0542169 6.29277C0.0903614 6.38193 0.151807 6.46506 0.238554 6.54217L5.60241 11.7976C5.74217 11.9325 5.91325 12 6.11566 12Z" fill="white"/>
</svg>
