<svg width="7" height="12" viewBox="0 0 7 12" fill="none" xmlns="http://www.w3.org/2000/svg">
<path fill-rule="evenodd" clip-rule="evenodd" d="M0.884337 12C0.749398 12 0.626506 11.9699 0.515662 11.9096C0.404819 11.8494 0.316868 11.7627 0.251807 11.6494C0.186747 11.5361 0.154217 11.4145 0.154217 11.2843C0.154217 11.0867 0.228916 10.9133 0.378313 10.7639L5.25783 6L0.378313 1.23614C0.228916 1.08675 0.154217 0.913253 0.154217 0.715663C0.154217 0.580723 0.186747 0.457831 0.251807 0.346988C0.316868 0.236145 0.404819 0.150602 0.515662 0.0903614C0.626506 0.0301205 0.749398 0 0.884337 0C1.08675 0 1.25783 0.0674699 1.39759 0.20241L6.76145 5.45783C6.84819 5.53494 6.90964 5.61807 6.94578 5.70723C6.98193 5.79639 7 5.89398 7 6C7 6.10602 6.98193 6.20361 6.94578 6.29277C6.90964 6.38193 6.84819 6.46506 6.76145 6.54217L1.39759 11.7976C1.25783 11.9325 1.08675 12 0.884337 12Z" fill="white"/>
</svg>
