<svg width="6" height="6" viewBox="0 0 6 6" fill="none" xmlns="http://www.w3.org/2000/svg">
<path d="M6 0.486739C6 0.336973 5.94569 0.219969 5.83706 0.135725C5.73163 0.0483619 5.58946 0.00468019 5.41054 0.00468019L0.589457 0C0.410543 0 0.266773 0.0436817 0.158147 0.131045C0.0527157 0.215289 0 0.332293 0 0.482059C0 0.563183 0.0159744 0.639626 0.0479233 0.711388C0.0798722 0.783151 0.116613 0.861154 0.158147 0.945398L2.44888 5.54134C2.53834 5.71919 2.6246 5.84087 2.70767 5.9064C2.79393 5.9688 2.89137 6 3 6C3.10863 6 3.20447 5.9688 3.28754 5.9064C3.3738 5.84087 3.46166 5.71919 3.55112 5.54134L5.84185 0.945398C5.88339 0.861154 5.92013 0.784711 5.95208 0.716069C5.98403 0.644306 6 0.567863 6 0.486739Z" fill="#003366"/>
</svg>
