<?xml version="1.0" encoding="UTF-8"?>
<svg width="16px" height="16px" viewBox="0 0 16 16" version="1.1" xmlns="http://www.w3.org/2000/svg" xmlns:xlink="http://www.w3.org/1999/xlink">
    <title>3AAA4AD1-2008-4CAD-8A2D-DA1415437A7A</title>
    <g id="Symbols" stroke="none" stroke-width="1" fill="none" fill-rule="evenodd">
        <g id="footer/1280" transform="translate(-1232.000000, -439.000000)" fill="#FFFFFF" fill-rule="nonzero">
            <g id="1280" transform="translate(24.000000, 48.000000)">
                <g id="footer" transform="translate(0.000000, 383.000000)">
                    <g id="social" transform="translate(840.000000, 0.000000)">
                        <g id="icon-social-iheartradio" transform="translate(360.000000, 0.000000)">
                            <g id="iheartradio" transform="translate(8.000000, 8.000000)">
                                <path d="M11.6624897,2 C14.072095,2 16.0238753,3.97905846 15.9997793,6.42234051 C15.9997793,7.97382461 15.0359371,9.08551794 14.0239029,10.1239128 L14.0239029,10.1239128 L10.0721502,13.911 C9.86733375,14.1064625 9.529989,13.9598656 9.529989,13.6666718 L9.529989,13.6666718 L9.529989,10.7103005 C9.529989,9.85515179 8.84325149,9.1588164 7.99988963,9.1588164 C7.15652777,9.1588164 6.46979026,9.85515179 6.46979026,10.7103005 L6.46979026,10.7103005 L6.46979026,13.6666718 C6.46979026,13.9598656 6.13244552,14.1064625 5.92762906,13.911 L5.92762906,13.911 L1.97587635,10.1239128 C0.963842124,9.08551794 0,7.97382461 0,6.42234051 C0,3.97905846 1.9517803,2 4.36138561,2 C5.87943696,2 7.22881593,2.81849949 8.01193766,4.00349128 C8.79505938,2.80628308 10.1564864,2 11.6624897,2 Z M3.56621586,3.49040205 C3.46983165,3.34380513 3.28911125,3.3071559 3.14453493,3.39267077 C2.28912505,3.94240923 1.65057964,5.15183384 1.65057964,6.21466153 L1.65057964,6.21466153 L1.65057964,6.22687794 C1.65057964,7.46073538 2.3132211,8.6823764 3.61440797,9.85515179 C3.6746481,9.90401743 3.74693626,9.92845025 3.81922442,9.92845025 C3.9035606,9.92845025 3.98789679,9.90401743 4.04813692,9.83071897 C4.16861719,9.70855486 4.15656916,9.5130923 4.02404087,9.40314461 C2.85538229,8.35253333 2.26502899,7.27748922 2.26502899,6.22687794 L2.26502899,6.22687794 L2.26502899,6.21466153 C2.26502899,5.35951282 2.79514216,4.34555077 3.46983165,3.91797641 C3.61440797,3.82024513 3.65055205,3.63699897 3.56621586,3.49040205 Z M12.8672924,3.39267077 C12.722716,3.3071559 12.5299476,3.34380513 12.4456114,3.49040205 C12.3612752,3.63699897 12.3974193,3.83246154 12.5419956,3.91797641 C13.2166851,4.34555077 13.7467983,5.35951282 13.7467983,6.21466153 L13.7467983,6.21466153 L13.7467983,6.22687794 C13.7467983,7.28970563 13.156445,8.35253333 11.9877864,9.40314461 C11.8673062,9.5130923 11.8552581,9.70855486 11.9636904,9.83071897 C12.0239305,9.89180102 12.1082667,9.92845025 12.1926029,9.92845025 C12.264891,9.92845025 12.3371792,9.90401743 12.3974193,9.85515179 C13.6986062,8.6823764 14.3612477,7.46073538 14.3612477,6.22687794 L14.3612477,6.22687794 L14.3612477,6.21466153 C14.3612477,5.13961743 13.7106542,3.93019282 12.8672924,3.39267077 Z M5.81919683,4.29668513 C5.73486064,4.13787179 5.55414024,4.08900615 5.40956392,4.16230461 C4.61439417,4.58987897 4.10837705,5.43281128 4.10837705,6.34904205 L4.10837705,6.34904205 L4.10837705,6.36125846 C4.10837705,7.32635487 4.71077838,8.3158841 5.59028432,8.81675692 C5.63847643,8.84118974 5.68666853,8.85340615 5.73486064,8.85340615 C5.84329288,8.85340615 5.93967709,8.79232409 5.99991722,8.69459281 C6.08425341,8.54799589 6.02401328,8.36474974 5.86738893,8.27923486 C5.16860339,7.88830974 4.69873036,7.11867589 4.69873036,6.36125846 C4.69873036,5.66492307 5.08426721,5.02966974 5.68666853,4.71204307 C5.84329288,4.6265282 5.89148498,4.44328205 5.81919683,4.29668513 Z M10.6022634,4.16230461 C10.457687,4.08900615 10.2649186,4.1500882 10.1926305,4.29668513 C10.1203423,4.44328205 10.1805824,4.63874461 10.3251588,4.71204307 C10.9396081,5.04188615 11.3130969,5.66492307 11.3130969,6.36125846 C11.3130969,7.10645948 10.8432239,7.87609333 10.1444384,8.27923486 C9.99986204,8.36474974 9.93962191,8.54799589 10.0239581,8.69459281 C10.0841982,8.79232409 10.1805824,8.85340615 10.2890147,8.85340615 C10.3372068,8.85340615 10.3853989,8.84118974 10.433591,8.81675692 C11.325145,8.3158841 11.9154983,7.32635487 11.9034502,6.36125846 L11.9034502,6.36125846 L11.9034502,6.34904205 C11.9034502,5.43281128 11.4094811,4.58987897 10.6022634,4.16230461 Z M8.01193766,5.24956512 C7.28905607,5.24956512 6.69870276,5.84816923 6.69870276,6.58115384 C6.69870276,7.31413846 7.28905607,7.91274256 8.01193766,7.91274256 C8.73481925,7.91274256 9.32517255,7.31413846 9.32517255,6.58115384 C9.32517255,5.84816923 8.73481925,5.24956512 8.01193766,5.24956512 Z"></path>
                            </g>
                        </g>
                    </g>
                </g>
            </g>
        </g>
    </g>
</svg>