<?xml version="1.0" encoding="UTF-8"?>
<svg width="16px" height="16px" viewBox="0 0 16 16" version="1.1" xmlns="http://www.w3.org/2000/svg" xmlns:xlink="http://www.w3.org/1999/xlink">
    <title>692BC21E-193A-4D36-BD80-BCC542DFDC2E</title>
    <g id="Symbols" stroke="none" stroke-width="1" fill="none" fill-rule="evenodd">
        <g id="footer/1280" transform="translate(-1192.000000, -439.000000)" fill="#FFFFFF" fill-rule="nonzero">
            <g id="1280" transform="translate(24.000000, 48.000000)">
                <g id="footer" transform="translate(0.000000, 383.000000)">
                    <g id="social" transform="translate(840.000000, 0.000000)">
                        <g id="icon-social-spotify" transform="translate(320.000000, 0.000000)">
                            <g id="spotify" transform="translate(8.000000, 8.000000)">
                                <path d="M8,0 C12.418278,0 16,3.581722 16,8 C16,12.418278 12.418278,16 8,16 C3.581722,16 0,12.418278 0,8 C0,3.581722 3.581722,0 8,0 Z M11.5035069,10.853135 C9.39511158,9.5642933 6.78087141,9.26418704 3.73390011,9.96131775 C3.56031686,10.0009549 3.42106548,10.1301866 3.36860061,10.3003327 C3.31613574,10.4704787 3.35842804,10.6556898 3.47954642,10.7861988 C3.60066479,10.9167077 3.78220847,10.9726871 3.95579171,10.9330499 C6.74091392,10.2971307 9.10435707,10.5564293 10.9832094,11.7041445 C11.0961107,11.7733827 11.2319347,11.794816 11.3606708,11.7637088 C11.4894069,11.7326015 11.6004583,11.6515143 11.669288,11.5383634 C11.8121148,11.3037194 11.7381509,10.9968119 11.5035069,10.853135 Z M12.4420829,8.50244421 C9.97321998,6.98575983 6.36174283,6.55812965 3.45589798,7.43974495 C3.14647914,7.55489201 2.98002739,7.89087672 3.07588567,8.20680401 C3.17174395,8.5227313 3.49683131,8.7095738 3.81806589,8.63336876 C6.36174283,7.86142402 9.63995749,8.24399575 11.7900106,9.56599362 C12.0835447,9.74533141 12.4668485,9.65330808 12.6469713,9.36025505 L12.6469713,9.36025505 C12.734494,9.21998022 12.7615109,9.05018921 12.7229211,8.88913264 C12.6843314,8.72807606 12.5833005,8.58896582 12.4420829,8.50244421 Z M13.4945802,5.80573858 C10.5266738,4.04420829 5.82869288,3.87757705 3.00361318,4.73623804 C2.74433961,4.81091437 2.54536159,5.01941251 2.48287526,5.28189069 C2.42038893,5.54436887 2.50407586,5.82015905 2.70188917,6.00365082 C2.89970248,6.18714259 3.18099323,6.24990596 3.43804463,6.16790648 C5.89925611,5.41976621 10.1534538,5.56089267 12.7328374,7.09202976 L12.7328374,7.09202976 C13.0865714,7.30369892 13.5456103,7.18646508 13.7564293,6.83103082 C13.9672483,6.47559655 13.8500145,6.01655758 13.4945802,5.80573858 Z"></path>
                            </g>
                        </g>
                    </g>
                </g>
            </g>
        </g>
    </g>
</svg>