<?xml version="1.0" encoding="UTF-8"?>
<svg width="16px" height="16px" viewBox="0 0 16 16" version="1.1" xmlns="http://www.w3.org/2000/svg" xmlns:xlink="http://www.w3.org/1999/xlink">
    <title>AEAB0F3D-CDFC-4FB9-A0F9-9D825DF17C58</title>
    <g id="Symbols" stroke="none" stroke-width="1" fill="none" fill-rule="evenodd">
        <g id="footer/1280" transform="translate(-992.000000, -439.000000)" fill="#FFFFFF" fill-rule="nonzero">
            <g id="1280" transform="translate(24.000000, 48.000000)">
                <g id="footer" transform="translate(0.000000, 383.000000)">
                    <g id="social" transform="translate(840.000000, 0.000000)">
                        <g id="icon-social-youtube" transform="translate(120.000000, 0.000000)">
                            <g id="youtube" transform="translate(8.000000, 8.000000)">
                                <path d="M6.4015272,10.3575 L6.4015272,5.6425 L10.5580655,8 L6.4015272,10.3575 Z M15.6665606,4.2175 C15.4832962,3.5425 14.941139,3.01 14.2513522,2.8275 C13.0041362,2.5 8,2.5 8,2.5 C8,2.5 2.99840916,2.5 1.74864779,2.8275 C1.0614063,3.00775 0.519249125,3.54 0.333439389,4.2175 C0,5.4425 0,8 0,8 C0,8 0,10.55775 0.333439389,11.7825 C0.516703786,12.4575 1.05886096,12.99 1.74864779,13.17275 C2.99840916,13.5 8,13.5 8,13.5 C8,13.5 13.0041362,13.5 14.2513522,13.17275 C14.9385937,12.9925 15.4807509,12.46 15.6665606,11.7825 C16,10.55775 16,8 16,8 C16,8 16,5.4425 15.6665606,4.2175 L15.6665606,4.2175 Z"></path>
                            </g>
                        </g>
                    </g>
                </g>
            </g>
        </g>
    </g>
</svg>